<svg viewBox="0 0 360 145" fill="none" xmlns="http://www.w3.org/2000/svg">
<g clip-path="url(#clip0_202_2)">
<rect width="145" height="360" transform="translate(0 145) rotate(-90)"/>
<path d="M7 72.5817H2H7ZM28.5625 72.5817H23.5625H28.5625ZM64.5 112.32L64.5 117.32L64.5 112.32ZM100.437 72.5817L105.437 72.5817L100.437 72.5817ZM64.5 4C47.7525 4 31.8061 11.3611 20.1329 24.2689L27.5498 30.9764C37.4433 20.0365 50.7476 14 64.5 14V4ZM20.1329 24.2689C8.47477 37.1602 2 54.5459 2 72.5817H12C12 56.8917 17.6413 41.9329 27.5498 30.9764L20.1329 24.2689ZM2 72.5817C2 90.6175 8.47477 108.003 20.1329 120.895L27.5498 114.187C17.6413 103.231 12 88.2718 12 72.5817H2ZM20.1329 120.895C31.8061 133.802 47.7525 141.163 64.5 141.163V131.163C50.7476 131.163 37.4433 125.127 27.5498 114.187L20.1329 120.895ZM64.5 141.163C81.2475 141.163 97.1939 133.802 108.867 120.895L101.45 114.187C91.5567 125.127 78.2524 131.163 64.5 131.163V141.163ZM108.867 120.895C120.525 108.003 127 90.6175 127 72.5817H117C117 88.2718 111.359 103.231 101.45 114.187L108.867 120.895ZM127 72.5817C127 54.5459 120.525 37.1602 108.867 24.2689L101.45 30.9764C111.359 41.9329 117 56.8917 117 72.5817H127ZM108.867 24.2689C97.1939 11.3611 81.2475 4 64.5 4V14C78.2524 14 91.5567 20.0365 101.45 30.9764L108.867 24.2689ZM64.5 27.8431C53.4712 27.8431 43.0094 32.6922 35.3799 41.1286L42.7968 47.836C48.6465 41.3676 56.4664 37.8431 64.5 37.8431V27.8431ZM35.3799 41.1286C27.7655 49.5483 23.5625 60.8695 23.5625 72.5817H33.5625C33.5625 63.2153 36.932 54.3211 42.7968 47.836L35.3799 41.1286ZM23.5625 72.5817C23.5625 84.2939 27.7655 95.6151 35.3799 104.035L42.7968 97.3274C36.932 90.8423 33.5625 81.9482 33.5625 72.5817H23.5625ZM35.3799 104.035C43.0094 112.471 53.4712 117.32 64.5 117.32L64.5 107.32C56.4664 107.32 48.6465 103.796 42.7968 97.3274L35.3799 104.035ZM64.5 117.32C75.5288 117.32 85.9906 112.471 93.6201 104.035L86.2032 97.3274C80.3535 103.796 72.5336 107.32 64.5 107.32L64.5 117.32ZM93.6201 104.035C101.234 95.6151 105.437 84.2939 105.437 72.5817L95.4375 72.5817C95.4375 81.9482 92.068 90.8423 86.2032 97.3274L93.6201 104.035ZM105.437 72.5817C105.437 60.8695 101.234 49.5483 93.6201 41.1286L86.2032 47.836C92.068 54.3211 95.4375 63.2153 95.4375 72.5817L105.437 72.5817ZM93.6201 41.1286C85.9906 32.6922 75.5288 27.8431 64.5 27.8431V37.8431C72.5336 37.8431 80.3535 41.3676 86.2032 47.836L93.6201 41.1286ZM39.6246 37.0459C26.7785 48.4097 19.5027 62.1502 18.1887 78.1328C16.8878 93.9567 21.4692 111.472 31.3081 130.511L40.1919 125.92C30.8641 107.87 27.0602 92.27 28.1551 78.9522C29.2369 65.7933 35.1381 54.3659 46.2504 44.5358L39.6246 37.0459ZM89.3754 108.118C102.203 96.7702 109.494 83.1796 110.811 67.3199C112.114 51.6262 107.524 34.2489 97.6919 15.2227L88.8081 19.8136C98.1425 37.8767 101.938 53.3297 100.845 66.4925C99.7662 79.4891 93.8805 90.7811 82.7496 100.628L89.3754 108.118Z" fill="black"/>
<path d="M187.8 81.96L187.96 97H181.24L154.68 55.96H154.28L154.2 80.12L154.28 97H148.52L148.76 81.8L148.6 45.72H155.24L181.72 86.76H182.28L182.2 46.04L188.2 45.56L187.8 81.96ZM208.569 84.52L208.729 97H202.809L203.049 85L202.809 57.16H208.809L208.569 84.52ZM237.704 56.76C242.131 56.76 245.971 57.6933 249.224 59.56L248.104 65.08L247.384 65.32C246.051 64.2 244.504 63.32 242.744 62.68C240.984 62.04 239.091 61.72 237.064 61.72C233.118 61.72 230.104 63 228.024 65.56C225.944 68.0667 224.904 71.8267 224.904 76.84C224.904 81.9067 225.944 85.7733 228.024 88.44C230.104 91.1067 233.118 92.44 237.064 92.44C238.984 92.44 240.904 92.12 242.824 91.48C244.798 90.7867 246.558 89.88 248.104 88.76L248.824 89L248.264 94.52C244.638 96.4933 240.824 97.48 236.824 97.48C230.958 97.48 226.451 95.7467 223.304 92.28C220.158 88.76 218.584 83.7733 218.584 77.32C218.584 70.76 220.238 65.6933 223.544 62.12C226.904 58.5467 231.624 56.76 237.704 56.76ZM280.499 92.52L280.099 97H258.899L259.139 85L258.899 57.16H264.899L264.659 84.52L264.819 91.96H280.179L280.499 92.52ZM320.256 97H314.256L313.296 92.68L311.216 86.76L301.696 86.68L293.216 86.76L291.056 92.36L289.936 97H284.016L299.376 57.16H306.256L320.256 97ZM309.536 81.88L302.896 63H302.416L295.136 81.88L302.176 81.96L309.536 81.88ZM341.913 56.76C345.166 56.76 348.42 57.4 351.673 58.68L350.633 64.6L349.673 64.84C348.18 63.6667 346.766 62.8133 345.433 62.28C344.1 61.6933 342.713 61.4 341.273 61.4C338.98 61.4 337.166 62.0133 335.833 63.24C334.5 64.4133 333.833 65.7733 333.833 67.32C333.833 68.8667 334.473 70.12 335.753 71.08C337.086 72.04 339.113 73.1067 341.833 74.28C344.233 75.3467 346.126 76.3067 347.513 77.16C348.953 78.0133 350.18 79.16 351.193 80.6C352.26 81.9867 352.793 83.6933 352.793 85.72C352.793 87.8 352.233 89.7467 351.113 91.56C349.993 93.32 348.34 94.76 346.153 95.88C344.02 96.9467 341.46 97.48 338.473 97.48C336.606 97.48 334.633 97.2667 332.553 96.84C330.526 96.36 328.633 95.6667 326.873 94.76L327.593 88.44L328.393 88.12C329.886 89.6133 331.62 90.7867 333.593 91.64C335.62 92.44 337.486 92.84 339.193 92.84C341.433 92.84 343.273 92.2533 344.713 91.08C346.153 89.8533 346.873 88.3867 346.873 86.68C346.873 85.08 346.206 83.8 344.873 82.84C343.593 81.88 341.566 80.76 338.793 79.48C336.5 78.4667 334.606 77.5333 333.113 76.68C331.673 75.8267 330.446 74.7067 329.433 73.32C328.42 71.88 327.913 70.1467 327.913 68.12C327.913 65.9867 328.473 64.0667 329.593 62.36C330.766 60.6533 332.393 59.2933 334.473 58.28C336.606 57.2667 339.086 56.76 341.913 56.76Z" fill="black"/>
</g>
<defs>
<clipPath id="clip0_202_2">
<rect width="145" height="360" fill="white" transform="translate(0 145) rotate(-90)"/>
</clipPath>
</defs>
</svg>
