<?xml version="1.0" ?><svg width="512px" height="512px" viewBox="0 0 512 512" xmlns="http://www.w3.org/2000/svg"><g id="Stationery_compass"><path d="M409.6454,416.9868l-37.1875,21.5257,29.6594,24.7621a8.7157,8.7157,0,0,0,14.176-8.2245Z"/><path d="M445.5426,355.8575l-15.3082-26.5138a.07.07,0,0,0-.0129-.0182l-15.3039-26.5106c-8.8825-14.8041-31.1035-1.9515-22.7295,13.1261l8.75,15.1522-26.5234,15.3136c-.0086.0043-.0129.0118-.0214.016L308.4244,232.1516a74.2213,74.2213,0,0,1-39.55,36.4l86.3443,149.5735,45.412-26.25L387.51,369.148c.0085.01,26.5383-15.3221,26.549-15.3242l8.7543,15.1587C431.7511,383.8165,453.9038,370.8869,445.5426,355.8575Z"/><path d="M174.8993,232.064,86.8011,384.6112c-4.3472,6.45.4316,14.3223,3.4736,20.1991L66.366,446.219A13.1252,13.1252,0,0,0,89.1,459.344l23.8938-41.3863c6.6372-.3386,15.7888-.0865,19.22-7.0955l82.1488-142.31A73.5561,73.5561,0,0,1,174.8993,232.064Z"/><path d="M289.7494,199.5826V146.6789a13.0873,13.0873,0,0,0-13.0865-13.0866h-8.7885V63.5955A17.5038,17.5038,0,0,0,250.37,46.0923H232.8766a17.502,17.502,0,0,0-17.5022,17.5032v69.9968H206.586a13.0874,13.0874,0,0,0-13.0866,13.0866v52.9037C195.5908,262.8941,287.66,262.8941,289.7494,199.5826Zm-48.125,17.1347c-23.0029-.393-22.9986-34.6112,0-35C264.6274,182.1083,264.6231,216.3285,241.6244,216.7173Z"/></g></svg>